<?xml version="1.0" encoding="utf-8"?>
<!-- Generator: Adobe Illustrator 24.0.2, SVG Export Plug-In . SVG Version: 6.00 Build 0)  -->
<svg version="1.1" id="Layer_1" xmlns="http://www.w3.org/2000/svg" xmlns:xlink="http://www.w3.org/1999/xlink" x="0px" y="0px"
	 viewBox="0 0 200 200" style="enable-background:new 0 0 200 200;" xml:space="preserve">
<style type="text/css">
	.st0{fill:#C1C1C1;}
</style>
<g>
	<path class="st0" d="M1.1,110.9C3.79,47.47,16.99,16.12,67.99,14.8c1.97-0.05,3.69,1.34,4.04,3.27l4.07,22.38
		c0.43,2.34-1.29,4.5-3.66,4.68c-26.18,2-30.13,21.99-30.13,45.44h32.08c4.74,0,8.58,3.84,8.58,8.58v66.36
		c0,4.74-3.84,8.58-8.58,8.58H8.6c-4.75,0-8.6-3.86-8.58-8.61C0.14,145.46,0.62,126.29,1.1,110.9z M118.13,110.9
		c2.69-63.43,15.89-94.78,66.89-96.11c1.97-0.05,3.69,1.34,4.04,3.27l4.07,22.38c0.43,2.34-1.29,4.5-3.66,4.68
		c-26.18,2-30.13,21.99-30.13,45.44h32.08c4.74,0,8.58,3.84,8.58,8.58v66.36c0,4.74-3.84,8.58-8.58,8.58h-65.79
		c-4.75,0-8.6-3.86-8.58-8.61C117.17,145.46,117.65,126.29,118.13,110.9z"/>
</g>
</svg>
