<?xml version="1.0" encoding="utf-8"?>
<!-- Generator: Adobe Illustrator 24.0.2, SVG Export Plug-In . SVG Version: 6.00 Build 0)  -->
<svg version="1.1" id="Layer_1" xmlns="http://www.w3.org/2000/svg" xmlns:xlink="http://www.w3.org/1999/xlink" x="0px" y="0px"
	 viewBox="0 0 200 200" style="enable-background:new 0 0 200 200;" xml:space="preserve">
<style type="text/css">
	.st0{fill:#C1C1C1;}
</style>
<g>
	<path class="st0" d="M198.92,77.98c-2.69,63.43-15.89,94.78-66.89,96.11c-1.97,0.05-3.69-1.34-4.04-3.27l-4.07-22.38
		c-0.43-2.34,1.29-4.5,3.66-4.68c26.18-2,30.13-21.99,30.13-45.44h-32.08c-4.74,0-8.58-3.84-8.58-8.58V23.37
		c0-4.74,3.84-8.58,8.58-8.58h65.79c4.75,0,8.6,3.86,8.58,8.61C199.89,43.42,199.41,62.59,198.92,77.98z M81.89,77.98
		C79.21,141.41,66,172.76,15,174.09c-1.97,0.05-3.69-1.34-4.04-3.27l-4.07-22.38c-0.43-2.34,1.29-4.5,3.66-4.68
		c26.18-2,30.13-21.99,30.13-45.44H8.6c-4.74,0-8.58-3.84-8.58-8.58V23.37c0-4.74,3.84-8.58,8.58-8.58h65.79
		c4.75,0,8.6,3.86,8.58,8.61C82.86,43.42,82.37,62.59,81.89,77.98z"/>
</g>
</svg>
